<svg width="21" height="21" viewBox="0 0 21 21" fill="none" xmlns="http://www.w3.org/2000/svg">
<path d="M10.2427 16.5426C10.0577 16.3576 9.9652 16.1351 9.9652 15.8751V11.8701H5.94504C5.68503 11.8701 5.46252 11.7776 5.27751 11.5926C5.0925 11.4076 5 11.1851 5 10.9251C5 10.6651 5.0925 10.4426 5.27751 10.2576C5.46252 10.0726 5.68503 9.98005 5.94504 9.98005H9.9502V5.94504C9.9502 5.68503 10.0427 5.46253 10.2277 5.27753C10.4127 5.09253 10.6352 5.00003 10.8952 5.00003C11.1553 5.00003 11.3778 5.09253 11.5628 5.27753C11.7478 5.46253 11.8403 5.68503 11.8403 5.94504V9.96505H15.8754C16.1355 9.96505 16.358 10.0576 16.543 10.2426C16.728 10.4276 16.8205 10.6501 16.8205 10.9101C16.8205 11.1701 16.728 11.3926 16.543 11.5776C16.358 11.7626 16.1355 11.8551 15.8754 11.8551H11.8553V15.8751C11.8553 16.1351 11.7628 16.3576 11.5778 16.5426C11.3928 16.7276 11.1703 16.8201 10.9102 16.8201C10.6502 16.8201 10.4277 16.7276 10.2427 16.5426Z" fill="url(#paint0_linear_2257_865)"/>
<path d="M15.8398 5.96484H15.875V9.96484H11.8398V5.94531C11.8398 5.68531 11.7475 5.46234 11.5625 5.27734C11.3776 5.09255 11.1553 5.00006 10.8955 5C10.6355 5 10.4125 5.09234 10.2275 5.27734C10.0425 5.46234 9.9502 5.68532 9.9502 5.94531V9.98047H5.94531L5.84961 9.98438C5.63017 10.0046 5.4393 10.0959 5.27734 10.2578C5.09254 10.4427 5.00005 10.665 5 10.9248C5 11.1848 5.09234 11.4078 5.27734 11.5928C5.43928 11.7547 5.63021 11.8451 5.84961 11.8652L5.94531 11.8701H9.96484V15.875C9.96484 16.135 10.0582 16.358 10.2432 16.543C10.4049 16.7046 10.5954 16.7952 10.8145 16.8154L10.9102 16.8203C11.1378 16.8203 11.3367 16.7492 11.5068 16.6074L11.5781 16.543C11.74 16.3811 11.8304 16.19 11.8506 15.9707L11.8555 15.875V11.8555H15.875L15.9717 11.8506C16.1908 11.8303 16.3812 11.7389 16.543 11.5771C16.7047 11.4153 16.7962 11.225 16.8164 11.0059L16.8203 10.9102C16.8203 10.6502 16.728 10.4272 16.543 10.2422C16.358 10.0573 16.1349 9.96484 15.875 9.96484V5.96484C17.1202 5.96484 18.2864 6.42107 19.1934 7.24414L19.3711 7.41406L19.541 7.5918C20.3643 8.49882 20.8203 9.66481 20.8203 10.9102C20.8203 12.2385 20.3009 13.4764 19.3711 14.4062C18.4412 15.3359 17.2032 15.8555 15.875 15.8555H15.8555V15.875C15.8555 17.2034 15.3361 18.4412 14.4062 19.3711C13.4764 20.3009 12.2384 20.8203 10.9102 20.8203C9.5819 20.8203 8.34392 20.3009 7.41406 19.3711C6.48425 18.4413 5.96484 17.2033 5.96484 15.875V15.8701H5.94531C4.61703 15.8701 3.37909 15.3507 2.44922 14.4209C1.51935 13.4911 1 12.2532 1 10.9248C1.00006 9.59652 1.51939 8.3585 2.44922 7.42871C3.37907 6.499 4.61713 5.98047 5.94531 5.98047H5.9502V5.94531C5.9502 4.61697 6.46958 3.37905 7.39941 2.44922L7.57715 2.2793C8.48418 1.45613 9.65026 1 10.8955 1L11.1436 1.00586C12.2949 1.06234 13.3665 1.51122 14.2129 2.2793L14.3916 2.44922L14.5605 2.62695C15.3838 3.53397 15.8398 4.69994 15.8398 5.94531V5.96484Z" fill="url(#paint1_linear_2257_865)"/>
<path d="M9.24272 15.5426C9.05771 15.3576 8.9652 15.1351 8.9652 14.8751V10.8701H4.94504C4.68503 10.8701 4.46252 10.7776 4.27751 10.5926C4.0925 10.4076 4 10.1851 4 9.92506C4 9.66506 4.0925 9.44256 4.27751 9.25756C4.46252 9.07255 4.68503 8.98005 4.94504 8.98005H8.9502V4.94504C8.9502 4.68503 9.04271 4.46253 9.22772 4.27753C9.41272 4.09253 9.63523 4.00003 9.89524 4.00003C10.1553 4.00003 10.3778 4.09253 10.5628 4.27753C10.7478 4.46253 10.8403 4.68503 10.8403 4.94504V8.96505H14.8754C15.1355 8.96505 15.358 9.05755 15.543 9.24256C15.728 9.42756 15.8205 9.65006 15.8205 9.91006C15.8205 10.1701 15.728 10.3926 15.543 10.5776C15.358 10.7626 15.1355 10.8551 14.8754 10.8551H10.8553V14.8751C10.8553 15.1351 10.7628 15.3576 10.5778 15.5426C10.3928 15.7276 10.1703 15.8201 9.91024 15.8201C9.65023 15.8201 9.42772 15.7276 9.24272 15.5426Z" fill="url(#paint2_linear_2257_865)"/>
<path d="M14.8398 4.96484H14.875V8.96484H10.8398V4.94531C10.8398 4.68531 10.7475 4.46234 10.5625 4.27734C10.3776 4.09255 10.1553 4.00006 9.89551 4C9.6355 4 9.41255 4.09234 9.22754 4.27734C9.04254 4.46234 8.9502 4.68532 8.9502 4.94531V8.98047H4.94531L4.84961 8.98438C4.63017 9.00455 4.4393 9.09586 4.27734 9.25781C4.09254 9.44272 4.00005 9.66501 4 9.9248C4 10.1848 4.09234 10.4078 4.27734 10.5928C4.43928 10.7547 4.63021 10.8451 4.84961 10.8652L4.94531 10.8701H8.96484V14.875C8.96484 15.135 9.05816 15.358 9.24316 15.543C9.40494 15.7046 9.59537 15.7952 9.81445 15.8154L9.91016 15.8203C10.1378 15.8203 10.3367 15.7492 10.5068 15.6074L10.5781 15.543C10.74 15.3811 10.8304 15.19 10.8506 14.9707L10.8555 14.875V10.8555H14.875L14.9717 10.8506C15.1908 10.8303 15.3812 10.7389 15.543 10.5771C15.7047 10.4153 15.7962 10.225 15.8164 10.0059L15.8203 9.91016C15.8203 9.65015 15.728 9.42719 15.543 9.24219C15.358 9.0573 15.1349 8.96484 14.875 8.96484V4.96484C16.1202 4.96484 17.2864 5.42107 18.1934 6.24414L18.3711 6.41406L18.541 6.5918C19.3643 7.49882 19.8203 8.66481 19.8203 9.91016C19.8203 11.2385 19.3009 12.4764 18.3711 13.4062C17.4412 14.3359 16.2032 14.8555 14.875 14.8555H14.8555V14.875C14.8555 16.2034 14.3361 17.4412 13.4062 18.3711C12.4764 19.3009 11.2384 19.8203 9.91016 19.8203C8.5819 19.8203 7.34392 19.3009 6.41406 18.3711C5.48425 17.4413 4.96484 16.2033 4.96484 14.875V14.8701H4.94531C3.61703 14.8701 2.37909 14.3507 1.44922 13.4209C0.519349 12.4911 0 11.2532 0 9.9248C5.82759e-05 8.59652 0.519392 7.3585 1.44922 6.42871C2.37907 5.499 3.61713 4.98047 4.94531 4.98047H4.9502V4.94531C4.9502 3.61697 5.46958 2.37905 6.39941 1.44922L6.57715 1.2793C7.48418 0.456126 8.65026 0 9.89551 0L10.1436 0.00585938C11.2949 0.0623435 12.3665 0.51122 13.2129 1.2793L13.3916 1.44922L13.5605 1.62695C14.3838 2.53397 14.8398 3.69994 14.8398 4.94531V4.96484Z" fill="url(#paint3_linear_2257_865)"/>
<path d="M10.2427 16.5426C10.0577 16.3576 9.9652 16.1351 9.9652 15.8751V11.8701H5.94504C5.68503 11.8701 5.46252 11.7776 5.27751 11.5926C5.0925 11.4076 5 11.1851 5 10.9251C5 10.6651 5.0925 10.4426 5.27751 10.2576C5.46252 10.0726 5.68503 9.98005 5.94504 9.98005H9.9502V5.94504C9.9502 5.68503 10.0427 5.46253 10.2277 5.27753C10.4127 5.09253 10.6352 5.00003 10.8952 5.00003C11.1553 5.00003 11.3778 5.09253 11.5628 5.27753C11.7478 5.46253 11.8403 5.68503 11.8403 5.94504V9.96505H15.8754C16.1355 9.96505 16.358 10.0576 16.543 10.2426C16.728 10.4276 16.8205 10.6501 16.8205 10.9101C16.8205 11.1701 16.728 11.3926 16.543 11.5776C16.358 11.7626 16.1355 11.8551 15.8754 11.8551H11.8553V15.8751C11.8553 16.1351 11.7628 16.3576 11.5778 16.5426C11.3928 16.7276 11.1703 16.8201 10.9102 16.8201C10.6502 16.8201 10.4277 16.7276 10.2427 16.5426Z" fill="url(#paint4_linear_2257_865)"/>
<path d="M13.8398 7.96487H15.875V9.96487H11.8398V5.94534C11.8398 5.68534 11.7475 5.46238 11.5625 5.27737C11.3776 5.09258 11.1553 5.00009 10.8955 5.00003C10.6355 5.00003 10.4125 5.09237 10.2275 5.27737C10.0425 5.46237 9.9502 5.68535 9.9502 5.94534V9.9805H5.94531L5.84961 9.98441C5.63017 10.0046 5.4393 10.0959 5.27734 10.2578C5.09254 10.4427 5.00005 10.665 5 10.9248C5 11.1848 5.09234 11.4078 5.27734 11.5928C5.43928 11.7547 5.63021 11.8451 5.84961 11.8653L5.94531 11.8701H9.96484V15.875C9.96484 16.135 10.0582 16.358 10.2432 16.543C10.4049 16.7046 10.5954 16.7952 10.8145 16.8155L10.9102 16.8203C11.1378 16.8203 11.3367 16.7492 11.5068 16.6075L11.5781 16.543C11.74 16.3811 11.8304 16.1901 11.8506 15.9707L11.8555 15.875V11.8555H15.875L15.9717 11.8506C16.1908 11.8303 16.3812 11.7389 16.543 11.5772C16.7047 11.4154 16.7962 11.2251 16.8164 11.0059L16.8203 10.9102C16.8203 10.6502 16.728 10.4272 16.543 10.2422C16.358 10.0573 16.1349 9.96487 15.875 9.96487V7.96487C16.6691 7.96487 17.3996 8.27083 17.957 8.82816C18.5145 9.38558 18.8203 10.116 18.8203 10.9102C18.8203 11.7043 18.5144 12.4348 17.957 12.9922C17.3996 13.5495 16.669 13.8555 15.875 13.8555H13.8555V15.875C13.8555 16.6692 13.5496 17.3996 12.9922 17.9571C12.4347 18.5145 11.7043 18.8203 10.9102 18.8203C10.116 18.8203 9.38555 18.5145 8.82812 17.9571C8.27073 17.3996 7.96484 16.6692 7.96484 15.875V13.8701H5.94531C5.15117 13.8701 4.42072 13.5643 3.86328 13.0069C3.30584 12.4494 3 11.719 3 10.9248C3.00006 10.1309 3.30605 9.40112 3.86328 8.84378L4.08008 8.64651C4.60418 8.21441 5.25032 7.9805 5.94531 7.9805H7.9502V5.94534C7.9502 5.15117 8.25606 4.42073 8.81348 3.86331C9.37092 3.30589 10.1014 3.00003 10.8955 3.00003L11.1895 3.01468C11.8689 3.08077 12.4887 3.3756 12.9766 3.86331C13.534 4.42073 13.8398 5.15115 13.8398 5.94534V7.96487Z" fill="url(#paint5_linear_2257_865)"/>
<path d="M9.24272 15.5426C9.05771 15.3576 8.9652 15.1351 8.9652 14.8751V10.8701H4.94504C4.68503 10.8701 4.46252 10.7776 4.27751 10.5926C4.0925 10.4076 4 10.1851 4 9.92506C4 9.66506 4.0925 9.44256 4.27751 9.25756C4.46252 9.07255 4.68503 8.98005 4.94504 8.98005H8.9502V4.94504C8.9502 4.68503 9.04271 4.46253 9.22772 4.27753C9.41272 4.09253 9.63523 4.00003 9.89524 4.00003C10.1553 4.00003 10.3778 4.09253 10.5628 4.27753C10.7478 4.46253 10.8403 4.68503 10.8403 4.94504V8.96505H14.8754C15.1355 8.96505 15.358 9.05755 15.543 9.24256C15.728 9.42756 15.8205 9.65006 15.8205 9.91006C15.8205 10.1701 15.728 10.3926 15.543 10.5776C15.358 10.7626 15.1355 10.8551 14.8754 10.8551H10.8553V14.8751C10.8553 15.1351 10.7628 15.3576 10.5778 15.5426C10.3928 15.7276 10.1703 15.8201 9.91024 15.8201C9.65023 15.8201 9.42772 15.7276 9.24272 15.5426Z" fill="url(#paint6_linear_2257_865)"/>
<path d="M12.8398 6.96484H14.875V8.96484H10.8398V4.94531C10.8398 4.68531 10.7475 4.46234 10.5625 4.27734C10.3776 4.09255 10.1553 4.00006 9.89551 4C9.6355 4 9.41255 4.09234 9.22754 4.27734C9.04254 4.46234 8.9502 4.68532 8.9502 4.94531V8.98047H4.94531L4.84961 8.98438C4.63017 9.00455 4.4393 9.09586 4.27734 9.25781C4.09254 9.44272 4.00005 9.66501 4 9.9248C4 10.1848 4.09234 10.4078 4.27734 10.5928C4.43928 10.7547 4.63021 10.8451 4.84961 10.8652L4.94531 10.8701H8.96484V14.875C8.96484 15.135 9.05816 15.358 9.24316 15.543C9.40494 15.7046 9.59537 15.7952 9.81445 15.8154L9.91016 15.8203C10.1378 15.8203 10.3367 15.7492 10.5068 15.6074L10.5781 15.543C10.74 15.3811 10.8304 15.19 10.8506 14.9707L10.8555 14.875V10.8555H14.875L14.9717 10.8506C15.1908 10.8303 15.3812 10.7389 15.543 10.5771C15.7047 10.4153 15.7962 10.225 15.8164 10.0059L15.8203 9.91016C15.8203 9.65015 15.728 9.42719 15.543 9.24219C15.358 9.0573 15.1349 8.96484 14.875 8.96484V6.96484C15.6691 6.96484 16.3996 7.2708 16.957 7.82812C17.5145 8.38555 17.8203 9.11597 17.8203 9.91016C17.8203 10.7043 17.5144 11.4348 16.957 11.9922C16.3996 12.5494 15.669 12.8555 14.875 12.8555H12.8555V14.875C12.8555 15.6692 12.5496 16.3996 11.9922 16.957C11.4347 17.5145 10.7043 17.8203 9.91016 17.8203C9.11604 17.8203 8.38555 17.5144 7.82812 16.957C7.27073 16.3996 6.96484 15.6691 6.96484 14.875V12.8701H4.94531C4.15117 12.8701 3.42072 12.5643 2.86328 12.0068C2.30584 11.4494 2 10.719 2 9.9248C2.00006 9.13082 2.30605 8.40109 2.86328 7.84375L3.08008 7.64648C3.60418 7.21438 4.25032 6.98047 4.94531 6.98047H6.9502V4.94531C6.9502 4.15114 7.25606 3.4207 7.81348 2.86328C8.37092 2.30586 9.10136 2 9.89551 2L10.1895 2.01465C10.8689 2.08074 11.4887 2.37557 11.9766 2.86328C12.534 3.4207 12.8398 4.15112 12.8398 4.94531V6.96484Z" fill="url(#paint7_linear_2257_865)"/>
<defs>
<linearGradient id="paint0_linear_2257_865" x1="5.36506" y1="4.71642" x2="16.1226" y2="17.7514" gradientUnits="userSpaceOnUse">
<stop stop-color="#A3EA91"/>
<stop offset="1" stop-color="white"/>
</linearGradient>
<linearGradient id="paint1_linear_2257_865" x1="3.9932" y1="3.95871" x2="9.60811" y2="20.2455" gradientUnits="userSpaceOnUse">
<stop stop-color="#D7FFE1"/>
<stop offset="1" stop-color="#CEF2C4"/>
</linearGradient>
<linearGradient id="paint2_linear_2257_865" x1="4.36506" y1="3.71642" x2="15.1226" y2="16.7514" gradientUnits="userSpaceOnUse">
<stop stop-color="#A3EA91"/>
<stop offset="1" stop-color="white"/>
</linearGradient>
<linearGradient id="paint3_linear_2257_865" x1="2.9932" y1="2.95871" x2="8.60811" y2="19.2455" gradientUnits="userSpaceOnUse">
<stop stop-color="#D7FFE1"/>
<stop offset="1" stop-color="#CEF2C4"/>
</linearGradient>
<linearGradient id="paint4_linear_2257_865" x1="5.36506" y1="4.71642" x2="16.1226" y2="17.7514" gradientUnits="userSpaceOnUse">
<stop stop-color="#A3EA91"/>
<stop offset="1" stop-color="white"/>
</linearGradient>
<linearGradient id="paint5_linear_2257_865" x1="10.9102" y1="5.00003" x2="10.9102" y2="16.8201" gradientUnits="userSpaceOnUse">
<stop stop-color="#29463A"/>
<stop offset="1" stop-color="#181F1C"/>
</linearGradient>
<linearGradient id="paint6_linear_2257_865" x1="4.36506" y1="3.71642" x2="15.1226" y2="16.7514" gradientUnits="userSpaceOnUse">
<stop stop-color="#A3EA91"/>
<stop offset="1" stop-color="white"/>
</linearGradient>
<linearGradient id="paint7_linear_2257_865" x1="9.91024" y1="4" x2="9.91024" y2="15.8201" gradientUnits="userSpaceOnUse">
<stop stop-color="#29463A"/>
<stop offset="1" stop-color="#181F1C"/>
</linearGradient>
</defs>
</svg>
