<svg width="23" height="25" viewBox="0 0 23 25" fill="none" xmlns="http://www.w3.org/2000/svg">
<path d="M5.00586 17.8018C5.03443 18.111 5.16314 18.3799 5.3916 18.6084C5.65264 18.8694 5.96648 18.9999 6.33301 19H15.667L15.8018 18.9941C16.0668 18.9697 16.3021 18.8715 16.5078 18.7002L16.6084 18.6084C16.8369 18.3799 16.9656 18.111 16.9941 17.8018L17 17.667V9.66699C17 9.30033 16.8695 8.98572 16.6084 8.72461C16.38 8.49626 16.1109 8.36841 15.8018 8.33984L15.667 8.33301H14.333C14.3329 7.41093 14.0083 6.62453 13.3584 5.97461C12.7084 5.32472 11.9221 5 11 5V3C12.4506 3 13.746 3.53421 14.7725 4.56055C15.3011 5.0892 15.6981 5.68989 15.96 6.3457C16.7457 6.41229 17.4587 6.74684 18.0225 7.31055C18.6557 7.94374 19 8.76568 19 9.66699V17.667C18.9999 18.5682 18.6556 19.3893 18.0225 20.0225C17.3893 20.6556 16.5682 20.9999 15.667 21H6.33301C5.43182 20.9999 4.61066 20.6556 3.97754 20.0225C3.34442 19.3893 3.00008 18.5682 3 17.667V9.66699C3 8.76568 3.34435 7.94374 3.97754 7.31055C4.54108 6.74708 5.25374 6.41248 6.03906 6.3457C6.30087 5.68976 6.6988 5.08929 7.22754 4.56055C8.25395 3.53421 9.54936 3 11 3V5C10.0779 5 9.29157 5.32472 8.6416 5.97461C7.99168 6.62453 7.66707 7.41093 7.66699 8.33301H6.33301C5.96656 8.33309 5.6526 8.46368 5.3916 8.72461C5.13049 8.98572 5 9.30033 5 9.66699V17.667L5.00586 17.8018ZM13.5498 10.333C13.7386 10.333 13.8944 10.3999 14.0166 10.5332C14.1388 10.6665 14.2002 10.8277 14.2002 11.0166C14.2113 11.6943 13.8833 12.3052 13.2168 12.8496C12.5501 13.394 11.8056 13.667 10.9834 13.667C10.1612 13.667 9.42216 13.3941 8.7666 12.8496C8.1112 12.3052 7.7832 11.6943 7.7832 11.0166C7.78322 10.8278 7.84693 10.6665 7.97461 10.5332C8.10239 10.3999 8.26131 10.333 8.4502 10.333C8.60547 10.333 8.73863 10.3804 8.84961 10.4746C8.96072 10.5691 9.04405 10.7225 9.09961 10.9336C9.21074 11.3557 9.44752 11.6947 9.80859 11.9502C10.1696 12.2056 10.5613 12.333 10.9834 12.333C11.4056 12.333 11.7949 12.2057 12.1504 11.9502C12.5058 11.6947 12.744 11.3556 12.8662 10.9336C12.9218 10.7336 13.0116 10.5834 13.1338 10.4834C13.2559 10.3836 13.3944 10.333 13.5498 10.333ZM11 6.33301C11.5556 6.33301 12.0281 6.5281 12.417 6.91699C12.8056 7.30574 12.9999 7.77775 13 8.33301H9C9.00008 7.77775 9.19441 7.30574 9.58301 6.91699C9.9719 6.5281 10.4444 6.33301 11 6.33301Z" fill="url(#paint0_linear_2231_1503)"/>
<defs>
<linearGradient id="paint0_linear_2231_1503" x1="1.63721" y1="1.41429" x2="10.9929" y2="25.5356" gradientUnits="userSpaceOnUse">
<stop stop-color="#D7FFE1"/>
<stop offset="1" stop-color="#CEF2C4"/>
</linearGradient>
</defs>
</svg>
