<svg width="128" height="128" viewBox="0 0 128 128" fill="none" xmlns="http://www.w3.org/2000/svg">
<path d="M49.3345 31.9131C51.6853 31.4194 54.1009 32.5401 55.1821 34.7393C55.5436 35.4746 56.3301 35.9019 57.0981 35.8174C62.006 35.2776 66.9453 35.2806 71.9136 35.8242C72.6711 35.9071 73.4435 35.4844 73.7944 34.7598C74.8656 32.5469 77.2859 31.4196 79.6401 31.9141C84.4279 32.9197 89.0498 34.3925 93.4546 36.2871C95.1693 37.0247 96.6097 38.2673 97.6021 39.832C106.253 53.4731 110.789 68.728 109.887 86.0273C109.737 88.9039 108.255 91.5508 105.868 93.1738C100.375 96.9065 94.9868 99.5497 89.6724 101.485C86.8014 102.531 83.5582 101.482 81.9028 98.8594C81.5368 98.2795 81.1806 97.6923 80.8354 97.0986C79.9209 95.5254 79.9841 93.8066 80.6733 92.3838C70.0854 95.8058 58.9714 95.7958 48.3071 92.3594C49.0014 93.7798 49.0686 95.4992 48.1528 97.0732C47.8046 97.6717 47.4464 98.2631 47.0776 98.8467C45.4206 101.469 42.1742 102.523 39.2983 101.475C33.9947 99.5403 28.6174 96.9007 23.1333 93.1777C20.7392 91.5525 19.2558 88.8998 19.106 86.0186C18.3188 70.8835 21.5261 55.5251 31.3491 39.877C32.3413 38.2965 33.7889 37.0372 35.5181 36.292C39.9212 34.3946 44.5448 32.9189 49.3345 31.9131ZM50.0425 63.5078C47.0223 63.5078 44.2202 66.3661 44.2202 70.4131C44.2202 74.4447 47.0841 77.3115 50.0425 77.3115C53.0667 77.3114 55.8703 74.4558 55.8647 70.416V70.3828C55.9263 66.3842 53.0886 63.5079 50.0425 63.5078ZM78.9497 63.5078C75.9295 63.5078 73.1275 66.3661 73.1274 70.4131C73.1274 74.4447 75.9914 77.3115 78.9497 77.3115C81.9715 77.3112 84.771 74.4577 84.771 70.4131V70.3975L84.772 70.3828C84.8335 66.3843 81.9957 63.5081 78.9497 63.5078Z" fill="url(#paint0_linear_2060_554)" stroke="url(#paint1_linear_2060_554)" stroke-width="4"/>
<path d="M49.2422 30.9424C51.593 30.4487 54.0086 31.5694 55.0898 33.7686C55.4513 34.5039 56.2378 34.9312 57.0059 34.8467C61.9137 34.3069 66.8531 34.3099 71.8213 34.8535C72.5788 34.9364 73.3512 34.5137 73.7021 33.7891C74.7733 31.5762 77.1937 30.4489 79.5479 30.9434C84.3356 31.949 88.9575 33.4218 93.3623 35.3164C95.077 36.054 96.5174 37.2966 97.5098 38.8613C106.161 52.5024 110.697 67.7573 109.795 85.0566C109.645 87.9332 108.163 90.5801 105.775 92.2031C100.283 95.9358 94.8946 98.579 89.5801 100.515C86.7091 101.56 83.4659 100.511 81.8105 97.8887C81.4445 97.3088 81.0884 96.7216 80.7432 96.1279C79.8286 94.5547 79.8918 92.8359 80.5811 91.4131C69.9931 94.8351 58.8791 94.8251 48.2148 91.3887C48.9091 92.8091 48.9763 94.5285 48.0605 96.1025C47.7124 96.701 47.3541 97.2924 46.9854 97.876C45.3284 100.498 42.0819 101.553 39.2061 100.504C33.9024 98.5696 28.5251 95.93 23.041 92.207C20.647 90.5818 19.1635 87.9291 19.0137 85.0479C18.2265 69.9128 21.4338 54.5544 31.2568 38.9062C32.249 37.3258 33.6966 36.0665 35.4258 35.3213C39.829 33.4239 44.4525 31.9482 49.2422 30.9424ZM49.9502 62.5371C46.9301 62.5371 44.128 65.3954 44.1279 69.4424C44.1279 73.474 46.9918 76.3408 49.9502 76.3408C52.9744 76.3407 55.778 73.4851 55.7725 69.4453V69.4121C55.834 65.4135 52.9963 62.5372 49.9502 62.5371ZM78.8574 62.5371C75.8372 62.5371 73.0352 65.3954 73.0352 69.4424C73.0352 73.474 75.8991 76.3408 78.8574 76.3408C81.8793 76.3405 84.6787 73.487 84.6787 69.4424V69.4268L84.6797 69.4121C84.7412 65.4136 81.9034 62.5374 78.8574 62.5371Z" fill="url(#paint2_linear_2060_554)" stroke="url(#paint3_linear_2060_554)" stroke-width="4"/>
<path d="M49.2422 29.8984C51.593 29.4048 54.0086 30.5255 55.0898 32.7246C55.4513 33.46 56.2378 33.8872 57.0059 33.8027C61.9137 33.2629 66.8531 33.266 71.8213 33.8096C72.5788 33.8925 73.3512 33.4698 73.7021 32.7451C74.7733 30.5323 77.1937 29.4049 79.5479 29.8994C84.3356 30.905 88.9575 32.3778 93.3623 34.2725C95.077 35.0101 96.5174 36.2526 97.5098 37.8174C106.161 51.4585 110.697 66.7133 109.795 84.0127C109.645 86.8892 108.163 89.5361 105.775 91.1592C100.283 94.8918 94.8946 97.535 89.5801 99.4707C86.7091 100.516 83.4659 99.4671 81.8105 96.8447C81.4445 96.2649 81.0884 95.6777 80.7432 95.084C79.8286 93.5108 79.8918 91.7919 80.5811 90.3691C69.9931 93.7912 58.8791 93.7812 48.2148 90.3447C48.9091 91.7652 48.9763 93.4846 48.0605 95.0586C47.7124 95.657 47.3541 96.2484 46.9854 96.832C45.3284 99.4545 42.0819 100.509 39.2061 99.46C33.9024 97.5257 28.5251 94.8861 23.041 91.1631C20.647 89.5378 19.1635 86.8851 19.0137 84.0039C18.2265 68.8688 21.4338 53.5104 31.2568 37.8623C32.249 36.2819 33.6966 35.0226 35.4258 34.2773C39.829 32.38 44.4525 30.9043 49.2422 29.8984ZM49.9502 61.4932C46.9301 61.4932 44.128 64.3515 44.1279 68.3984C44.1279 72.4301 46.9918 75.2969 49.9502 75.2969C52.9744 75.2967 55.778 72.4412 55.7725 68.4014V68.3682C55.834 64.3695 52.9963 61.4933 49.9502 61.4932ZM78.8574 61.4932C75.8372 61.4932 73.0352 64.3514 73.0352 68.3984C73.0352 72.4301 75.8991 75.2969 78.8574 75.2969C81.8793 75.2966 84.6787 72.4431 84.6787 68.3984V68.3828L84.6797 68.3682C84.7412 64.3697 81.9034 61.4935 78.8574 61.4932Z" fill="url(#paint4_linear_2060_554)" stroke="url(#paint5_linear_2060_554)" stroke-width="4"/>
<path d="M49.2422 28.8564C51.593 28.3628 54.0086 29.4835 55.0898 31.6826C55.4513 32.418 56.2378 32.8452 57.0059 32.7607C61.9137 32.2209 66.8531 32.224 71.8213 32.7676C72.5788 32.8505 73.3512 32.4278 73.7021 31.7031C74.7733 29.4903 77.1937 28.363 79.5479 28.8574C84.3356 29.8631 88.9575 31.3358 93.3623 33.2305C95.077 33.9681 96.5174 35.2106 97.5098 36.7754C106.161 50.4165 110.697 65.6713 109.795 82.9707C109.645 85.8473 108.163 88.4941 105.775 90.1172C100.283 93.8498 94.8946 96.493 89.5801 98.4287C86.7091 99.4744 83.4659 98.4251 81.8105 95.8027C81.4445 95.2229 81.0884 94.6357 80.7432 94.042C79.8286 92.4688 79.8918 90.7499 80.5811 89.3271C69.9931 92.7492 58.8791 92.7392 48.2148 89.3027C48.9091 90.7232 48.9763 92.4426 48.0605 94.0166C47.7124 94.615 47.3541 95.2064 46.9854 95.79C45.3284 98.4125 42.0819 99.4668 39.2061 98.418C33.9024 96.4837 28.5251 93.8441 23.041 90.1211C20.647 88.4958 19.1635 85.8431 19.0137 82.9619C18.2265 67.8268 21.4338 52.4684 31.2568 36.8203C32.249 35.2399 33.6966 33.9806 35.4258 33.2354C39.829 31.338 44.4525 29.8623 49.2422 28.8564ZM49.9502 60.4512C46.9301 60.4512 44.128 63.3095 44.1279 67.3564C44.1279 71.3881 46.9918 74.2549 49.9502 74.2549C52.9744 74.2548 55.778 71.3992 55.7725 67.3594V67.3262C55.834 63.3275 52.9963 60.4513 49.9502 60.4512ZM78.8574 60.4512C75.8372 60.4512 73.0352 63.3095 73.0352 67.3564C73.0352 71.3881 75.8991 74.2549 78.8574 74.2549C81.8793 74.2546 84.6787 71.4011 84.6787 67.3564V67.3408L84.6797 67.3262C84.7412 63.3277 81.9034 60.4515 78.8574 60.4512Z" fill="url(#paint6_linear_2060_554)" stroke="url(#paint7_linear_2060_554)" stroke-width="4"/>
<path d="M49.2422 27.8125C51.593 27.3188 54.0086 28.4395 55.0898 30.6387C55.4513 31.3741 56.2378 31.8013 57.0059 31.7168C61.9137 31.177 66.8531 31.18 71.8213 31.7236C72.5788 31.8065 73.3512 31.3838 73.7021 30.6592C74.7733 28.4463 77.1937 27.319 79.5479 27.8135C84.3356 28.8191 88.9575 30.2919 93.3623 32.1865C95.077 32.9241 96.5174 34.1667 97.5098 35.7314C106.161 49.3726 110.697 64.6274 109.795 81.9268C109.645 84.8033 108.163 87.4502 105.775 89.0732C100.283 92.8059 94.8946 95.4491 89.5801 97.3848C86.7091 98.4304 83.4659 97.3812 81.8105 94.7588C81.4445 94.1789 81.0884 93.5917 80.7432 92.998C79.8286 91.4248 79.8918 89.706 80.5811 88.2832C69.9931 91.7053 58.8791 91.6952 48.2148 88.2588C48.9091 89.6792 48.9763 91.3986 48.0605 92.9727C47.7124 93.5711 47.3541 94.1625 46.9854 94.7461C45.3284 97.3686 42.0819 98.4229 39.2061 97.374C33.9024 95.4397 28.5251 92.8001 23.041 89.0771C20.647 87.4519 19.1635 84.7992 19.0137 81.918C18.2265 66.7829 21.4338 51.4245 31.2568 35.7764C32.249 34.1959 33.6966 32.9366 35.4258 32.1914C39.829 30.294 44.4525 28.8183 49.2422 27.8125ZM49.9502 59.4072C46.9301 59.4072 44.128 62.2655 44.1279 66.3125C44.1279 70.3441 46.9918 73.2109 49.9502 73.2109C52.9744 73.2108 55.778 70.3553 55.7725 66.3154V66.2822C55.834 62.2836 52.9963 59.4074 49.9502 59.4072ZM78.8574 59.4072C75.8372 59.4072 73.0352 62.2655 73.0352 66.3125C73.0352 70.3441 75.8991 73.2109 78.8574 73.2109C81.8793 73.2106 84.6787 70.3572 84.6787 66.3125V66.2969L84.6797 66.2822C84.7412 62.2837 81.9034 59.4075 78.8574 59.4072Z" fill="url(#paint8_linear_2060_554)" stroke="url(#paint9_linear_2060_554)" stroke-width="4"/>
<path d="M49.2422 26.7695C51.593 26.2759 54.0086 27.3965 55.0898 29.5957C55.4513 30.3311 56.2378 30.7583 57.0059 30.6738C61.9137 30.134 66.8531 30.1371 71.8213 30.6807C72.5788 30.7636 73.3512 30.3409 73.7021 29.6162C74.7733 27.4034 77.1937 26.276 79.5479 26.7705C84.3356 27.7761 88.9575 29.2489 93.3623 31.1436C95.077 31.8812 96.5174 33.1237 97.5098 34.6885C106.161 48.3296 110.697 63.5844 109.795 80.8838C109.645 83.7603 108.163 86.4072 105.775 88.0303C100.283 91.7629 94.8946 94.4061 89.5801 96.3418C86.7091 97.3875 83.4659 96.3382 81.8105 93.7158C81.4445 93.136 81.0884 92.5488 80.7432 91.9551C79.8286 90.3819 79.8918 88.663 80.5811 87.2402C69.9931 90.6623 58.8791 90.6523 48.2148 87.2158C48.9091 88.6363 48.9763 90.3557 48.0605 91.9297C47.7124 92.5281 47.3541 93.1195 46.9854 93.7031C45.3284 96.3256 42.0819 97.3799 39.2061 96.3311C33.9024 94.3968 28.5251 91.7572 23.041 88.0342C20.647 86.4089 19.1635 83.7562 19.0137 80.875C18.2265 65.7399 21.4338 50.3815 31.2568 34.7334C32.249 33.153 33.6966 31.8937 35.4258 31.1484C39.829 29.2511 44.4525 27.7754 49.2422 26.7695ZM49.9502 58.3643C46.9301 58.3643 44.128 61.2226 44.1279 65.2695C44.1279 69.3012 46.9918 72.168 49.9502 72.168C52.9744 72.1678 55.778 69.3123 55.7725 65.2725V65.2393C55.834 61.2406 52.9963 58.3644 49.9502 58.3643ZM78.8574 58.3643C75.8372 58.3643 73.0352 61.2225 73.0352 65.2695C73.0352 69.3012 75.8991 72.168 78.8574 72.168C81.8793 72.1677 84.6787 69.3142 84.6787 65.2695V65.2539L84.6797 65.2393C84.7412 61.2408 81.9034 58.3646 78.8574 58.3643Z" fill="#E7FFE5" stroke="url(#paint10_linear_2060_554)" stroke-width="4"/>
<mask id="mask0_2060_554" style="mask-type:alpha" maskUnits="userSpaceOnUse" x="20" y="28" width="88" height="67">
<path d="M95.8206 35.7594C95.0401 34.5287 93.9104 33.5564 92.5717 32.9806C88.2878 31.138 83.7932 29.7057 79.1365 28.7276C77.6553 28.4165 76.1621 29.125 75.5027 30.4873C74.7926 31.9542 73.2242 32.846 71.6042 32.6687C66.7788 32.1407 61.9856 32.1386 57.2245 32.6623C55.5963 32.8414 54.0174 31.9485 53.2948 30.4785C52.6276 29.1211 51.1337 28.4158 49.6535 28.7266C44.9955 29.7048 40.4998 31.1398 36.2177 32.985C34.8683 33.5665 33.7317 34.5521 32.9504 35.7966C23.3582 51.0771 20.2437 66.024 21.0107 80.7712C21.1283 83.0314 22.2915 85.1085 24.1641 86.3797C29.5049 90.0054 34.7341 92.5715 39.8917 94.4525C41.9027 95.1859 44.1509 94.4444 45.2944 92.6347C45.6501 92.0716 45.9961 91.5013 46.332 90.9241C47.2781 89.2979 46.4689 87.2605 44.7666 86.4594C43.8204 86.0142 42.8916 85.5379 41.9818 85.0326C41.3046 84.6564 41.259 83.7092 41.8604 83.221C42.1896 82.9537 42.6415 82.8952 43.0278 83.0701C56.9549 89.3766 72.0117 89.3779 85.7782 83.074C86.1653 82.8967 86.6218 82.9551 86.953 83.2226C87.5562 83.7101 87.5059 84.6552 86.828 85.0321C85.9189 85.5375 84.9913 86.0133 84.0469 86.4578C82.3346 87.2638 81.521 89.3141 82.4723 90.9502C82.8054 91.523 83.1484 92.0892 83.5014 92.6484C84.6423 94.4558 86.8871 95.1943 88.8953 94.4628C94.0634 92.5805 99.3027 90.0111 104.651 86.3765C106.519 85.107 107.68 83.0349 107.798 80.7794C108.676 63.9234 104.266 49.0758 95.8206 35.7594ZM49.95 74.1675C45.6523 74.1675 42.1278 70.1554 42.1278 65.2696C42.1278 60.3838 45.577 56.3647 49.95 56.3647C54.3231 56.3647 57.8474 60.3767 57.7721 65.2696C57.7789 70.1554 54.3231 74.1675 49.95 74.1675ZM78.857 74.1675C74.5593 74.1675 71.0348 70.1554 71.0348 65.2696C71.0348 60.3838 74.4839 56.3647 78.857 56.3647C83.2299 56.3647 86.7544 60.3767 86.6791 65.2696C86.6791 70.1554 83.2299 74.1675 78.857 74.1675Z" fill="#E7FFE5"/>
</mask>
<g mask="url(#mask0_2060_554)">
</g>
<defs>
<linearGradient id="paint0_linear_2060_554" x1="64.4959" y1="29.7407" x2="64.4959" y2="100.748" gradientUnits="userSpaceOnUse">
<stop stop-color="white"/>
<stop offset="0.631381" stop-color="#A3EA91"/>
</linearGradient>
<linearGradient id="paint1_linear_2060_554" x1="64.4959" y1="33.3955" x2="64.4959" y2="100.748" gradientUnits="userSpaceOnUse">
<stop stop-color="#29463A"/>
<stop offset="1" stop-color="#181F1C"/>
</linearGradient>
<linearGradient id="paint2_linear_2060_554" x1="64.4036" y1="28.77" x2="64.4036" y2="99.7778" gradientUnits="userSpaceOnUse">
<stop stop-color="white"/>
<stop offset="0.631381" stop-color="#A3EA91"/>
</linearGradient>
<linearGradient id="paint3_linear_2060_554" x1="64.4036" y1="32.4248" x2="64.4036" y2="99.7778" gradientUnits="userSpaceOnUse">
<stop stop-color="#29463A"/>
<stop offset="1" stop-color="#181F1C"/>
</linearGradient>
<linearGradient id="paint4_linear_2060_554" x1="64.4036" y1="27.726" x2="64.4036" y2="98.7338" gradientUnits="userSpaceOnUse">
<stop stop-color="white"/>
<stop offset="0.631381" stop-color="#A3EA91"/>
</linearGradient>
<linearGradient id="paint5_linear_2060_554" x1="64.4036" y1="31.3809" x2="64.4036" y2="98.7338" gradientUnits="userSpaceOnUse">
<stop stop-color="#29463A"/>
<stop offset="1" stop-color="#181F1C"/>
</linearGradient>
<linearGradient id="paint6_linear_2060_554" x1="64.4036" y1="26.6841" x2="64.4036" y2="97.6919" gradientUnits="userSpaceOnUse">
<stop stop-color="white"/>
<stop offset="0.631381" stop-color="#A3EA91"/>
</linearGradient>
<linearGradient id="paint7_linear_2060_554" x1="64.4036" y1="30.3389" x2="64.4036" y2="97.6919" gradientUnits="userSpaceOnUse">
<stop stop-color="#29463A"/>
<stop offset="1" stop-color="#181F1C"/>
</linearGradient>
<linearGradient id="paint8_linear_2060_554" x1="64.4036" y1="25.6401" x2="64.4036" y2="96.6479" gradientUnits="userSpaceOnUse">
<stop stop-color="white"/>
<stop offset="0.631381" stop-color="#A3EA91"/>
</linearGradient>
<linearGradient id="paint9_linear_2060_554" x1="64.4036" y1="29.2949" x2="64.4036" y2="96.6479" gradientUnits="userSpaceOnUse">
<stop stop-color="#29463A"/>
<stop offset="1" stop-color="#181F1C"/>
</linearGradient>
<linearGradient id="paint10_linear_2060_554" x1="64.4036" y1="28.252" x2="64.4036" y2="95.6049" gradientUnits="userSpaceOnUse">
<stop stop-color="#29463A"/>
<stop offset="1" stop-color="#181F1C"/>
</linearGradient>
</defs>
</svg>
