<svg width="128" height="128" viewBox="0 0 128 128" fill="none" xmlns="http://www.w3.org/2000/svg">
<path d="M43.9668 20.7305C46.858 20.1234 49.8189 21.5024 51.1436 24.1973C51.7689 25.4692 53.1318 26.2221 54.4941 26.0723C61.1402 25.3413 67.8296 25.3447 74.5596 26.0811C75.9087 26.2287 77.2532 25.4802 77.8633 24.2197C79.1752 21.5097 82.1403 20.1245 85.0352 20.7324C91.7994 22.1532 98.3187 24.2619 104.516 26.9893C106.213 27.7363 107.644 28.9686 108.643 30.5195C120.888 49.544 127.215 70.87 125.671 95.1611C125.489 98.0195 124.019 100.647 121.665 102.29C113.844 107.747 106.183 111.552 98.6309 114.303C95.0267 115.615 90.9635 114.296 88.8916 111.014C88.3968 110.23 87.9159 109.436 87.4492 108.634C85.943 106.043 86.6137 103.098 88.4385 101.167C72.8293 106.728 56.2926 106.714 40.5557 101.131C42.3962 103.052 43.0822 106.003 41.5723 108.599C41.1015 109.408 40.6167 110.207 40.1182 110.996C38.0437 114.279 33.9763 115.605 30.3662 114.288C22.8279 111.539 15.1806 107.738 7.36914 102.294C5.00982 100.649 3.53772 98.0191 3.35645 95.1553C2.0171 73.9843 6.36394 52.4982 20.3281 30.5713C21.3261 29.0042 22.7658 27.754 24.4775 26.999C30.6736 24.2664 37.1976 22.152 43.9668 20.7305ZM44.7822 62.416C40.1656 62.4161 36.1045 66.7416 36.1045 72.5723C36.1046 78.3875 40.255 82.7187 44.7822 82.7188C49.403 82.7188 53.4679 78.3987 53.46 72.5752V72.5586L53.4609 72.541C53.5498 66.7562 49.4249 62.416 44.7822 62.416ZM84.2432 62.416C79.6264 62.416 75.5645 66.7415 75.5645 72.5723C75.5645 78.3875 79.7159 82.7188 84.2432 82.7188C88.8614 82.7185 92.9208 78.4006 92.9209 72.5723V72.541C93.0097 66.7564 88.8855 62.4163 84.2432 62.416Z" fill="url(#paint0_linear_2060_554)" stroke="url(#paint1_linear_2060_554)" stroke-width="4"/>
<path d="M43.8408 19.4053C46.732 18.7982 49.6929 20.1772 51.0176 22.8721C51.6429 24.144 53.0058 24.8969 54.3682 24.7471C61.0142 24.0161 67.7036 24.0195 74.4336 24.7559C75.7827 24.9035 77.1272 24.155 77.7373 22.8945C79.0492 20.1845 82.0143 18.7993 84.9092 19.4072C91.6734 20.828 98.1927 22.9367 104.39 25.6641C106.087 26.4111 107.518 27.6434 108.517 29.1943C120.762 48.2188 127.089 69.5448 125.545 93.8359C125.363 96.6943 123.893 99.3221 121.539 100.965C113.718 106.422 106.057 110.227 98.5049 112.978C94.9007 114.29 90.8375 112.971 88.7656 109.688C88.2708 108.905 87.7899 108.111 87.3232 107.309C85.817 104.718 86.4877 101.772 88.3125 99.8418C72.7034 105.403 56.1666 105.388 40.4297 99.8057C42.2702 101.727 42.9563 104.678 41.4463 107.273C40.9755 108.083 40.4908 108.882 39.9922 109.671C37.9178 112.954 33.8503 114.279 30.2402 112.963C22.7019 110.214 15.0546 106.413 7.24316 100.969C4.88384 99.3243 3.41174 96.6939 3.23047 93.8301C1.89113 72.6591 6.23796 51.173 20.2021 29.2461C21.2001 27.679 22.6398 26.4288 24.3516 25.6738C30.5477 22.9412 37.0716 20.8268 43.8408 19.4053ZM44.6562 61.0908C40.0397 61.0909 35.9785 65.4164 35.9785 71.2471C35.9786 77.0623 40.129 81.3935 44.6562 81.3936C49.277 81.3936 53.3419 77.0735 53.334 71.25V71.2334L53.335 71.2158C53.4238 65.431 49.2989 61.0908 44.6562 61.0908ZM84.1172 61.0908C79.5004 61.0908 75.4385 65.4163 75.4385 71.2471C75.4386 77.0623 79.5899 81.3936 84.1172 81.3936C88.7355 81.3933 92.7948 77.0754 92.7949 71.2471V71.2158C92.8837 65.4312 88.7595 61.0911 84.1172 61.0908Z" fill="url(#paint2_linear_2060_554)" stroke="url(#paint3_linear_2060_554)" stroke-width="4"/>
<path d="M43.8408 17.9805C46.732 17.3734 49.6929 18.7524 51.0176 21.4473C51.6429 22.7192 53.0058 23.4721 54.3682 23.3223C61.0142 22.5913 67.7036 22.5947 74.4336 23.3311C75.7827 23.4787 77.1272 22.7302 77.7373 21.4697C79.0492 18.7597 82.0143 17.3745 84.9092 17.9824C91.6734 19.4032 98.1927 21.5119 104.39 24.2393C106.087 24.9863 107.518 26.2186 108.517 27.7695C120.762 46.794 127.089 68.12 125.545 92.4111C125.363 95.2695 123.893 97.8973 121.539 99.54C113.718 104.997 106.057 108.802 98.5049 111.553C94.9007 112.865 90.8375 111.546 88.7656 108.264C88.2708 107.48 87.7899 106.686 87.3232 105.884C85.817 103.293 86.4877 100.348 88.3125 98.417C72.7034 103.978 56.1666 103.964 40.4297 98.3809C42.2702 100.302 42.9563 103.253 41.4463 105.849C40.9755 106.658 40.4908 107.457 39.9922 108.246C37.9178 111.529 33.8503 112.855 30.2402 111.538C22.7019 108.789 15.0546 104.988 7.24316 99.5439C4.88384 97.8995 3.41174 95.2691 3.23047 92.4053C1.89113 71.2343 6.23796 49.7482 20.2021 27.8213C21.2001 26.2542 22.6398 25.004 24.3516 24.249C30.5477 21.5164 37.0716 19.402 43.8408 17.9805ZM44.6562 59.666C40.0397 59.6661 35.9785 63.9916 35.9785 69.8223C35.9786 75.6375 40.129 79.9687 44.6562 79.9688C49.277 79.9688 53.3419 75.6487 53.334 69.8252V69.8086L53.335 69.791C53.4238 64.0062 49.2989 59.666 44.6562 59.666ZM84.1172 59.666C79.5004 59.666 75.4385 63.9915 75.4385 69.8223C75.4386 75.6375 79.5899 79.9688 84.1172 79.9688C88.7355 79.9685 92.7948 75.6506 92.7949 69.8223V69.791C92.8837 64.0064 88.7595 59.6663 84.1172 59.666Z" fill="url(#paint4_linear_2060_554)" stroke="url(#paint5_linear_2060_554)" stroke-width="4"/>
<path d="M43.8408 16.5576C46.732 15.9506 49.6929 17.3296 51.0176 20.0244C51.6429 21.2963 53.0058 22.0493 54.3682 21.8994C61.0142 21.1684 67.7036 21.1718 74.4336 21.9082C75.7827 22.0558 77.1272 21.3073 77.7373 20.0469C79.0492 17.3368 82.0143 15.9516 84.9092 16.5596C91.6734 17.9803 98.1927 20.089 104.39 22.8164C106.087 23.5635 107.518 24.7958 108.517 26.3467C120.762 45.3711 127.089 66.6972 125.545 90.9883C125.363 93.8466 123.893 96.4745 121.539 98.1172C113.718 103.574 106.057 107.379 98.5049 110.13C94.9007 111.443 90.8375 110.123 88.7656 106.841C88.2708 106.057 87.7899 105.264 87.3232 104.461C85.817 101.87 86.4877 98.9247 88.3125 96.9941C72.7034 102.555 56.1666 102.541 40.4297 96.958C42.2702 98.8793 42.9563 101.831 41.4463 104.426C40.9755 105.235 40.4908 106.034 39.9922 106.823C37.9178 110.106 33.8503 111.432 30.2402 110.115C22.7019 107.366 15.0546 103.566 7.24316 98.1211C4.88384 96.4766 3.41174 93.8462 3.23047 90.9824C1.89113 69.8114 6.23796 48.3254 20.2021 26.3984C21.2001 24.8314 22.6398 23.5812 24.3516 22.8262C30.5477 20.0936 37.0716 17.9791 43.8408 16.5576ZM44.6562 58.2432C40.0397 58.2432 35.9785 62.5688 35.9785 68.3994C35.9786 74.2146 40.129 78.5458 44.6562 78.5459C49.277 78.5459 53.3419 74.2259 53.334 68.4023V68.3857L53.335 68.3682C53.4238 62.5833 49.2989 58.2432 44.6562 58.2432ZM84.1172 58.2432C79.5004 58.2432 75.4385 62.5687 75.4385 68.3994C75.4386 74.2147 79.5899 78.5459 84.1172 78.5459C88.7355 78.5456 92.7948 74.2277 92.7949 68.3994V68.3682C92.8837 62.5835 88.7595 58.2434 84.1172 58.2432Z" fill="url(#paint6_linear_2060_554)" stroke="url(#paint7_linear_2060_554)" stroke-width="4"/>
<path d="M43.8408 15.1328C46.732 14.5258 49.6929 15.9048 51.0176 18.5996C51.6429 19.8715 53.0058 20.6245 54.3682 20.4746C61.0142 19.7436 67.7036 19.747 74.4336 20.4834C75.7827 20.631 77.1272 19.8825 77.7373 18.6221C79.0492 15.912 82.0143 14.5268 84.9092 15.1348C91.6734 16.5555 98.1927 18.6642 104.39 21.3916C106.087 22.1386 107.518 23.371 108.517 24.9219C120.762 43.9463 127.089 65.2724 125.545 89.5635C125.363 92.4218 123.893 95.0497 121.539 96.6924C113.718 102.15 106.057 105.954 98.5049 108.705C94.9007 110.018 90.8375 108.698 88.7656 105.416C88.2708 104.632 87.7899 103.839 87.3232 103.036C85.817 100.446 86.4877 97.4999 88.3125 95.5693C72.7034 101.131 56.1666 101.116 40.4297 95.5332C42.2702 97.4545 42.9563 100.406 41.4463 103.001C40.9755 103.81 40.4908 104.609 39.9922 105.398C37.9178 108.682 33.8503 110.007 30.2402 108.69C22.7019 105.941 15.0546 102.141 7.24316 96.6963C4.88384 95.0518 3.41174 92.4214 3.23047 89.5576C1.89113 68.3866 6.23796 46.9006 20.2021 24.9736C21.2001 23.4066 22.6398 22.1564 24.3516 21.4014C30.5477 18.6688 37.0716 16.5543 43.8408 15.1328ZM44.6562 56.8184C40.0397 56.8184 35.9785 61.1439 35.9785 66.9746C35.9786 72.7898 40.129 77.121 44.6562 77.1211C49.277 77.1211 53.3419 72.8011 53.334 66.9775V66.9609L53.335 66.9434C53.4238 61.1585 49.2989 56.8184 44.6562 56.8184ZM84.1172 56.8184C79.5004 56.8184 75.4385 61.1439 75.4385 66.9746C75.4386 72.7899 79.5899 77.1211 84.1172 77.1211C88.7355 77.1208 92.7948 72.8029 92.7949 66.9746V66.9434C92.8837 61.1587 88.7595 56.8186 84.1172 56.8184Z" fill="url(#paint8_linear_2060_554)" stroke="url(#paint9_linear_2060_554)" stroke-width="4"/>
<path d="M43.8408 13.709C46.732 13.102 49.6929 14.4809 51.0176 17.1758C51.6429 18.4477 53.0058 19.2006 54.3682 19.0508C61.0142 18.3198 67.7036 18.3232 74.4336 19.0596C75.7827 19.2072 77.1272 18.4587 77.7373 17.1982C79.0492 14.4882 82.0143 13.103 84.9092 13.7109C91.6734 15.1317 98.1927 17.2404 104.39 19.9678C106.087 20.7148 107.518 21.9471 108.517 23.498C120.762 42.5225 127.089 63.8485 125.545 88.1396C125.363 90.998 123.893 93.6258 121.539 95.2686C113.718 100.726 106.057 104.531 98.5049 107.281C94.9007 108.594 90.8375 107.274 88.7656 103.992C88.2708 103.208 87.7899 102.415 87.3232 101.612C85.817 99.0218 86.4877 96.0761 88.3125 94.1455C72.7034 99.7067 56.1666 99.6922 40.4297 94.1094C42.2702 96.0307 42.9563 98.9819 41.4463 101.577C40.9755 102.386 40.4908 103.186 39.9922 103.975C37.9178 107.258 33.8503 108.583 30.2402 107.267C22.7019 104.517 15.0546 100.717 7.24316 95.2725C4.88384 93.628 3.41174 90.9976 3.23047 88.1338C1.89113 66.9628 6.23796 45.4767 20.2021 23.5498C21.2001 21.9827 22.6398 20.7325 24.3516 19.9775C30.5477 17.2449 37.0716 15.1305 43.8408 13.709ZM44.6562 55.3945C40.0397 55.3946 35.9785 59.7201 35.9785 65.5508C35.9786 71.366 40.129 75.6972 44.6562 75.6973C49.277 75.6973 53.3419 71.3772 53.334 65.5537V65.5371L53.335 65.5195C53.4238 59.7347 49.2989 55.3945 44.6562 55.3945ZM84.1172 55.3945C79.5004 55.3945 75.4385 59.72 75.4385 65.5508C75.4386 71.3661 79.5899 75.6973 84.1172 75.6973C88.7355 75.697 92.7948 71.3791 92.7949 65.5508V65.5195C92.8837 59.7349 88.7595 55.3948 84.1172 55.3945Z" fill="#E7FFE5" stroke="url(#paint10_linear_2060_554)" stroke-width="4"/>
<mask id="mask0_2060_554" style="mask-type:alpha" maskUnits="userSpaceOnUse" x="5" y="15" width="119" height="91">
<path d="M106.835 24.5808C106.046 23.3554 104.918 22.3851 103.584 21.798C97.5129 19.1259 91.1258 17.0599 84.4983 15.6679C82.4764 15.2432 80.4381 16.2103 79.5379 18.07C78.5686 20.0725 76.4276 21.2898 74.2161 21.0478C67.6291 20.3271 61.0859 20.3241 54.5867 21.039C52.3641 21.2835 50.2088 20.0646 49.2224 18.0579C48.3116 16.205 46.2722 15.2422 44.2516 15.6665C37.62 17.0592 31.2291 19.1302 25.1588 21.8073C23.8144 22.4003 22.6785 23.3847 21.8892 24.6241C8.1661 46.1724 3.91237 67.233 5.22661 88.0072C5.36951 90.266 6.53006 92.3376 8.38683 93.6317C16.0494 98.9725 23.5414 102.695 30.9259 105.388C33.6712 106.389 36.7402 105.377 38.3011 102.906C38.7867 102.138 39.259 101.359 39.7175 100.571C41.009 98.3512 39.9044 95.57 37.5806 94.4765C36.289 93.8687 35.0211 93.2186 33.7791 92.5287C32.8548 92.0153 32.7925 90.7222 33.6134 90.0557C34.0628 89.6909 34.6797 89.611 35.207 89.8498C54.2186 98.4587 74.7723 98.4604 93.5648 89.8551C94.0932 89.6131 94.7164 89.6927 95.1684 90.058C95.9919 90.7234 95.9232 92.0136 94.9979 92.528C93.7569 93.218 92.4906 93.8674 91.2014 94.4743C88.864 95.5746 87.7533 98.3733 89.0519 100.607C89.5066 101.389 89.9749 102.162 90.4568 102.925C92.0142 105.392 95.0785 106.4 97.82 105.402C105.218 102.707 112.723 98.9813 120.394 93.6286C122.246 92.3362 123.405 90.2667 123.548 88.0128C125.064 64.1784 118.866 43.2725 106.835 24.5808ZM44.6564 77.6971C38.7897 77.6971 33.9785 72.2201 33.9785 65.5506C33.9785 58.8811 38.687 53.3947 44.6564 53.3947C50.626 53.3947 55.437 58.8715 55.3342 65.5506C55.3435 72.2201 50.626 77.6971 44.6564 77.6971ZM84.1167 77.6971C78.25 77.6971 73.4389 72.2201 73.4389 65.5506C73.4389 58.8811 78.1471 53.3947 84.1167 53.3947C90.0862 53.3947 94.8973 58.8715 94.7946 65.5506C94.7946 72.2201 90.0862 77.6971 84.1167 77.6971Z" fill="#E7FFE5"/>
</mask>
<g mask="url(#mask0_2060_554)">
</g>
<defs>
<linearGradient id="paint0_linear_2060_554" x1="64.5127" y1="17.0509" x2="64.5127" y2="113.982" gradientUnits="userSpaceOnUse">
<stop stop-color="white"/>
<stop offset="0.631381" stop-color="#A3EA91"/>
</linearGradient>
<linearGradient id="paint1_linear_2060_554" x1="64.5127" y1="22.04" x2="64.5127" y2="113.982" gradientUnits="userSpaceOnUse">
<stop stop-color="#29463A"/>
<stop offset="1" stop-color="#181F1C"/>
</linearGradient>
<linearGradient id="paint2_linear_2060_554" x1="64.3868" y1="15.7257" x2="64.3868" y2="112.657" gradientUnits="userSpaceOnUse">
<stop stop-color="white"/>
<stop offset="0.631381" stop-color="#A3EA91"/>
</linearGradient>
<linearGradient id="paint3_linear_2060_554" x1="64.3868" y1="20.7148" x2="64.3868" y2="112.657" gradientUnits="userSpaceOnUse">
<stop stop-color="#29463A"/>
<stop offset="1" stop-color="#181F1C"/>
</linearGradient>
<linearGradient id="paint4_linear_2060_554" x1="64.3868" y1="14.3009" x2="64.3868" y2="111.232" gradientUnits="userSpaceOnUse">
<stop stop-color="white"/>
<stop offset="0.631381" stop-color="#A3EA91"/>
</linearGradient>
<linearGradient id="paint5_linear_2060_554" x1="64.3868" y1="19.29" x2="64.3868" y2="111.232" gradientUnits="userSpaceOnUse">
<stop stop-color="#29463A"/>
<stop offset="1" stop-color="#181F1C"/>
</linearGradient>
<linearGradient id="paint6_linear_2060_554" x1="64.3868" y1="12.8781" x2="64.3868" y2="109.809" gradientUnits="userSpaceOnUse">
<stop stop-color="white"/>
<stop offset="0.631381" stop-color="#A3EA91"/>
</linearGradient>
<linearGradient id="paint7_linear_2060_554" x1="64.3868" y1="17.8672" x2="64.3868" y2="109.809" gradientUnits="userSpaceOnUse">
<stop stop-color="#29463A"/>
<stop offset="1" stop-color="#181F1C"/>
</linearGradient>
<linearGradient id="paint8_linear_2060_554" x1="64.3868" y1="11.4533" x2="64.3868" y2="108.385" gradientUnits="userSpaceOnUse">
<stop stop-color="white"/>
<stop offset="0.631381" stop-color="#A3EA91"/>
</linearGradient>
<linearGradient id="paint9_linear_2060_554" x1="64.3868" y1="16.4424" x2="64.3868" y2="108.385" gradientUnits="userSpaceOnUse">
<stop stop-color="#29463A"/>
<stop offset="1" stop-color="#181F1C"/>
</linearGradient>
<linearGradient id="paint10_linear_2060_554" x1="64.3868" y1="15.0186" x2="64.3868" y2="106.961" gradientUnits="userSpaceOnUse">
<stop stop-color="#29463A"/>
<stop offset="1" stop-color="#181F1C"/>
</linearGradient>
</defs>
</svg>
